<svg width="20" height="20" xmlns="http://www.w3.org/2000/svg">
 <g>
  <path id="svg_1" d="m11.077,15l0.991,-1.416a0.75,0.75 0 1 1 1.229,0.86l-1.148,1.64a0.748,0.748 0 0 1 -0.217,0.206a5.251,5.251 0 0 1 -8.503,-5.955a0.741,0.741 0 0 1 0.12,-0.274l1.147,-1.639a0.75,0.75 0 1 1 1.228,0.86l-0.991,1.418l0.006,0.003a3.75,3.75 0 0 0 6.132,4.294l0.006,0.004l0,-0.001zm5.494,-5.334a0.748,0.748 0 0 1 -0.12,0.274l-1.147,1.639a0.75,0.75 0 1 1 -1.228,-0.86l0.86,-1.23a3.75,3.75 0 0 0 -6.144,-4.301l-0.86,1.229a0.75,0.75 0 0 1 -1.229,-0.86l1.148,-1.64a0.748,0.748 0 0 1 0.217,-0.206a5.251,5.251 0 0 1 8.503,5.955zm-4.563,-2.532a0.75,0.75 0 0 1 0.184,1.045l-3.155,4.505a0.75,0.75 0 1 1 -1.229,-0.86l3.155,-4.506a0.75,0.75 0 0 1 1.045,-0.184z"/>
  <line id="svg_2" y2="16.802235" x2="18.189622" y1="16.802235" x1="12.844816" stroke-width="1.5" stroke="#000" fill="none"/>
  <line stroke="#000" id="svg_4" y2="19.388432" x2="15.431013" y1="14.043626" x1="15.603426" fill-opacity="null" stroke-opacity="null" stroke-width="1.5" fill="none"/>
 </g>
</svg>